<svg width="9" height="17" viewBox="0 0 9 17" fill="none" xmlns="http://www.w3.org/2000/svg">
<path d="M4.68631 7.64023C2.67916 7.11799 2.03368 6.57804 2.03368 5.73713C2.03368 4.77231 2.92674 4.09959 4.42105 4.09959C5.67663 4.09959 6.30442 4.57757 6.53431 5.33881C6.64042 5.69288 6.93221 5.95843 7.30358 5.95843H7.56884C8.15242 5.95843 8.568 5.38307 8.36463 4.83427C7.99326 3.78978 7.12673 2.92232 5.74737 2.58596V1.9752C5.74737 1.24052 5.15495 0.647461 4.42105 0.647461C3.68716 0.647461 3.09474 1.24052 3.09474 1.9752V2.55941C1.37937 2.93118 0 4.04648 0 5.75484C0 7.79956 1.68884 8.81749 4.15579 9.41055C6.36631 9.94165 6.80842 10.7206 6.80842 11.5438C6.80842 12.1546 6.37516 13.1282 4.42105 13.1282C2.9621 13.1282 2.21053 12.606 1.91874 11.8624C1.7861 11.5172 1.48547 11.2694 1.12295 11.2694H0.875368C0.282947 11.2694 -0.132632 11.8713 0.0884209 12.4201C0.592421 13.6505 1.76842 14.3763 3.09474 14.6596V15.2526C3.09474 15.9873 3.68716 16.5804 4.42105 16.5804C5.15495 16.5804 5.74737 15.9873 5.74737 15.2526V14.6773C7.47158 14.3497 8.8421 13.3495 8.8421 11.5349C8.8421 9.02108 6.69347 8.16247 4.68631 7.64023Z" fill="white"/>
</svg>
