<svg width="135" height="33" viewBox="0 0 135 33" fill="none" xmlns="http://www.w3.org/2000/svg">
<path d="M23.5202 0.796143H7.84035C6.80021 0.806665 5.77232 1.02197 4.81538 1.42976C3.85845 1.83756 2.99122 2.42985 2.2632 3.17282C1.53518 3.9158 0.960646 4.7949 0.572395 5.75992C0.184144 6.72495 -0.0102161 7.757 0.000413597 8.79715V24.7951C-0.0199837 26.8955 0.794322 28.918 2.26439 30.4183C3.73446 31.9186 5.74002 32.7738 7.84035 32.7961H23.5202C25.6206 32.7738 27.6261 31.9186 29.0962 30.4183C30.5663 28.918 31.3806 26.8955 31.3602 24.7951V8.79715C31.3708 7.757 31.1764 6.72495 30.7882 5.75992C30.3999 4.7949 29.8254 3.9158 29.0974 3.17282C28.3694 2.42985 27.5021 1.83756 26.5452 1.42976C25.5883 1.02197 24.5604 0.806665 23.5202 0.796143V0.796143ZM23.5202 3.15578C24.9997 3.17278 26.4121 3.77576 27.4478 4.83251C28.4834 5.88927 29.0577 7.31357 29.0448 8.79312V24.7951C29.0577 26.2747 28.4834 27.699 27.4478 28.7557C26.4121 29.8125 24.9997 30.4155 23.5202 30.4325H7.84035C6.36047 30.4155 4.94766 29.8126 3.9114 28.756C2.87513 27.6994 2.29991 26.2751 2.31173 24.7951V8.79715C2.29991 7.31722 2.87513 5.89293 3.9114 4.83629C4.94766 3.77965 6.36047 3.1768 7.84035 3.1598L23.5202 3.15578Z" fill="#2E2E36"/>
<path d="M46.3797 12.4735C47.33 13.3137 47.8051 14.5848 47.8051 16.2868V22.81H44.6965V21.3725C44.0711 22.4462 42.91 22.9764 41.2135 22.963C40.4308 22.9888 39.6519 22.8445 38.9303 22.5402C38.3251 22.2758 37.8101 21.8406 37.4485 21.2879C37.106 20.7552 36.9281 20.1333 36.9371 19.5001C36.919 19.0152 37.0196 18.5332 37.2301 18.096C37.4406 17.6588 37.7547 17.2796 38.1451 16.9914C38.9505 16.3821 40.1867 16.0787 41.8537 16.0814H44.4912C44.5103 15.7715 44.4611 15.4612 44.347 15.1724C44.2328 14.8836 44.0566 14.6235 43.8308 14.4103C43.2647 13.9818 42.5618 13.7742 41.8537 13.8265C41.2438 13.8273 40.6378 13.9238 40.0578 14.1124C39.5164 14.2807 39.0092 14.5438 38.5599 14.8895L37.3519 12.5742C38.0336 12.1068 38.7911 11.7608 39.5907 11.5514C40.4673 11.3126 41.3719 11.1921 42.2805 11.193C44.0657 11.193 45.4321 11.6199 46.3797 12.4735ZM43.561 20.3577C44.0016 20.095 44.3343 19.6838 44.4992 19.1981V18.0303H42.2241C40.8631 18.0303 40.1826 18.4759 40.1826 19.3672C40.1786 19.5598 40.2208 19.7506 40.3055 19.9236C40.3903 20.0966 40.5152 20.2469 40.6699 20.3618C41.0752 20.6309 41.5572 20.761 42.0429 20.7322C42.5726 20.743 43.095 20.6079 43.553 20.3416L43.561 20.3577Z" fill="#2E2E36"/>
<path d="M52.319 22.21C51.3818 21.7371 50.5953 21.0119 50.048 20.1161C49.4996 19.1999 49.2204 18.1476 49.2426 17.08C49.2203 16.0111 49.4994 14.9576 50.048 14.0399C50.5953 13.1441 51.3818 12.4189 52.319 11.946C53.337 11.4323 54.4647 11.1738 55.6048 11.193C56.7032 11.1667 57.7897 11.4261 58.7577 11.946C59.6359 12.4263 60.3288 13.1858 60.7267 14.1043L58.1537 15.4855C57.9171 15.0043 57.5483 14.6007 57.0904 14.3218C56.6325 14.0429 56.1046 13.9004 55.5686 13.911C55.1719 13.8998 54.7771 13.9693 54.4082 14.1154C54.0392 14.2614 53.7038 14.481 53.4223 14.7607C53.1317 15.07 52.9066 15.435 52.7606 15.8336C52.6146 16.2321 52.5507 16.6561 52.5727 17.08C52.551 17.5033 52.6151 17.9266 52.7611 18.3245C52.9071 18.7223 53.132 19.0866 53.4223 19.3954C53.7033 19.6758 54.0386 19.8959 54.4076 20.042C54.7767 20.1881 55.1718 20.2572 55.5686 20.245C56.1035 20.2582 56.6309 20.1167 57.0874 19.8374C57.5438 19.5581 57.9099 19.1529 58.1416 18.6706L60.7147 20.0759C60.3051 20.9786 59.6143 21.7245 58.7456 22.202C57.779 22.7264 56.6921 22.9888 55.5927 22.963C54.4567 22.9802 53.3334 22.7218 52.319 22.21Z" fill="#2E2E36"/>
<path d="M70.9021 12.4735C71.8524 13.3137 72.3276 14.5848 72.3276 16.2868V22.81H69.223V21.3725C68.6029 22.4462 67.4419 22.9764 65.7399 22.963C64.9557 22.9831 64.1766 22.8319 63.4568 22.5201C62.8554 22.2609 62.3421 21.8329 61.979 21.2879C61.6365 20.7552 61.4586 20.1333 61.4676 19.5001C61.4505 19.0153 61.5516 18.5337 61.762 18.0967C61.9725 17.6596 62.286 17.2803 62.6756 16.9914C63.481 16.3821 64.7172 16.0787 66.3842 16.0814H69.0217C69.0408 15.7715 68.9916 15.4611 68.8775 15.1724C68.7634 14.8836 68.5871 14.6234 68.3613 14.4103C67.7952 13.9818 67.0923 13.7742 66.3842 13.8265C65.7743 13.8273 65.1683 13.9238 64.5883 14.1124C64.0441 14.2798 63.5341 14.543 63.0823 14.8895L61.8945 12.5742C62.5777 12.1068 63.3364 11.7608 64.1373 11.5514C65.0125 11.3123 65.9158 11.1918 66.8231 11.193C68.5949 11.193 69.9545 11.6198 70.9021 12.4735ZM68.0835 20.3577C68.5228 20.0945 68.854 19.6834 69.0176 19.1981V18.0303H66.7426C65.3816 18.0303 64.7011 18.4759 64.7011 19.3672C64.6958 19.5635 64.7386 19.7582 64.8256 19.9343C64.9126 20.1105 65.0412 20.2627 65.2004 20.3779C65.6058 20.647 66.0877 20.7771 66.5735 20.7483C67.1031 20.7523 67.6238 20.6117 68.0794 20.3416L68.0835 20.3577Z" fill="#2E2E36"/>
<path d="M86.6706 7.02541V22.7939H83.5056V21.4771C82.6842 22.4677 81.4936 22.963 79.934 22.963C78.915 22.9784 77.9094 22.7301 77.0146 22.2422C76.1466 21.7661 75.4337 21.0505 74.961 20.1806C74.4512 19.2281 74.196 18.1601 74.2201 17.08C74.1966 15.9987 74.4517 14.9296 74.961 13.9754C75.4337 13.1055 76.1466 12.3899 77.0146 11.9138C77.91 11.4276 78.9152 11.1794 79.934 11.193C80.5709 11.1579 81.2077 11.2634 81.7993 11.5021C82.3908 11.7408 82.9225 12.1068 83.3567 12.5742V7.02541H86.6706ZM82.5916 19.3833C82.8751 19.0732 83.0944 18.71 83.2368 18.3146C83.3791 17.9193 83.4418 17.4997 83.4211 17.08C83.4421 16.6597 83.3796 16.2394 83.2372 15.8434C83.0949 15.4473 82.8754 15.0834 82.5916 14.7727C82.3246 14.4909 82.0012 14.2685 81.6425 14.12C81.2838 13.9715 80.8979 13.9003 80.5098 13.911C80.1182 13.9004 79.7286 13.9716 79.366 14.1199C79.0034 14.2683 78.6757 14.4906 78.4038 14.7727C78.1205 15.0836 77.9017 15.4477 77.76 15.8437C77.6183 16.2397 77.5566 16.66 77.5784 17.08C77.5569 17.4994 77.6188 17.919 77.7605 18.3143C77.9022 18.7096 78.1209 19.073 78.4038 19.3833C78.6757 19.6654 79.0034 19.8877 79.366 20.0361C79.7286 20.1845 80.1182 20.2556 80.5098 20.245C80.8979 20.2557 81.2838 20.1845 81.6425 20.036C82.0012 19.8876 82.3246 19.6651 82.5916 19.3833Z" fill="#2E2E36"/>
<path d="M100.019 18.0142H91.3697C91.506 18.6957 91.9016 19.2977 92.473 19.6933C93.1091 20.1188 93.8625 20.3343 94.6273 20.3094C95.176 20.3214 95.7222 20.2313 96.238 20.0437C96.718 19.8517 97.1548 19.5655 97.5225 19.2021L99.2862 21.1147C98.2124 22.3469 96.6393 22.963 94.5669 22.963C93.3837 22.9873 92.2118 22.7291 91.1483 22.21C90.1976 21.7475 89.4007 21.0204 88.8531 20.1161C88.3078 19.1985 88.029 18.1472 88.0477 17.08C88.0351 16.0161 88.3136 14.969 88.8531 14.052C89.3628 13.1658 90.1067 12.4372 91.0033 11.946C91.9532 11.4565 93.0053 11.1985 94.0738 11.1929C95.1424 11.1873 96.1971 11.4343 97.152 11.9138C98.0493 12.3851 98.7917 13.1051 99.2902 13.9875C99.8204 14.9451 100.087 16.026 100.063 17.1203C100.074 17.1659 100.059 17.4639 100.019 18.0142ZM92.2596 14.3379C91.7367 14.785 91.4029 15.4139 91.3254 16.0975H96.9628C96.8775 15.4191 96.5404 14.7975 96.0183 14.3559C95.4963 13.9144 94.8273 13.6852 94.1441 13.7137C93.4615 13.6893 92.7927 13.9108 92.2596 14.3379Z" fill="#2E2E36"/>
<path d="M119.919 12.4735C120.759 13.3137 121.181 14.5781 121.183 16.2666V22.7939H117.869V16.7539C117.922 16.0376 117.722 15.3255 117.306 14.7405C117.106 14.5129 116.857 14.3339 116.578 14.2174C116.299 14.1008 115.997 14.0497 115.695 14.0681C115.35 14.052 115.006 14.1114 114.687 14.2422C114.368 14.3729 114.081 14.5719 113.847 14.8251C113.35 15.461 113.107 16.259 113.166 17.0639V22.7939H109.852V16.7539C109.852 14.958 109.13 14.0587 107.686 14.056C107.344 14.0407 107.004 14.1005 106.688 14.2313C106.372 14.3621 106.088 14.5607 105.858 14.813C105.403 15.3123 105.177 16.0613 105.177 17.0518V22.7939H101.875V11.3621H105.04V12.6789C105.47 12.1962 106.004 11.8187 106.603 11.5756C107.242 11.3159 107.926 11.1859 108.616 11.193C109.376 11.1797 110.128 11.3423 110.815 11.6682C111.455 11.9809 111.998 12.4626 112.385 13.0614C112.854 12.4589 113.464 11.9806 114.161 11.6682C114.899 11.3376 115.7 11.1714 116.508 11.1809C117.135 11.1524 117.761 11.2523 118.347 11.4746C118.934 11.6969 119.469 12.0368 119.919 12.4735Z" fill="#2E2E36"/>
<path d="M134.87 11.3621L129.704 23.4945C129.18 24.8153 128.532 25.7414 127.759 26.281C126.934 26.8334 125.957 27.1149 124.964 27.0863C124.366 27.0846 123.771 26.9923 123.201 26.8125C122.678 26.6598 122.194 26.3991 121.779 26.0474L122.987 23.6878C123.247 23.9168 123.545 24.0969 123.869 24.2193C124.183 24.3436 124.518 24.4078 124.856 24.4086C125.251 24.4265 125.641 24.3117 125.963 24.0824C126.301 23.7835 126.562 23.4079 126.724 22.9872L126.768 22.8784L121.815 11.3621H125.23L128.451 19.1175L131.673 11.3621H134.87Z" fill="#2E2E36"/>
<path d="M14.7461 6.78784H17.7178L10.6872 26.8044H7.73163L14.7461 6.78784Z" fill="#DA0175"/>
<path d="M20.6734 6.78784H23.629L16.6145 26.8044H13.6589L20.6734 6.78784Z" fill="#DA0175"/>
</svg>
